<?xml version="1.0" encoding="UTF-8"?>
<svg xmlns="http://www.w3.org/2000/svg" width="960" height="540" viewBox="0 0 960 540">
<style>
text { font-family: -apple-system, BlinkMacSystemFont, 'Segoe UI', sans-serif; }
.title { font-size: 26px; font-weight: 700; fill: #1f2933; }
.axis-label { font-size: 14px; font-weight: 600; fill: #334155; }
.tick { font-size: 12px; fill: #64748b; }
.legend { font-size: 13px; font-weight: 600; fill: #1f2933; }
</style>
<rect width="960" height="540" fill="#ffffff"/>
<text class="title" x="480.0" y="34" text-anchor="middle">GB10 — ayourtch-may15 (sm_121)</text>
<line x1="82" y1="468.00" x2="878" y2="468.00" stroke="#e2e8f0" stroke-width="1"/>
<text class="tick" x="70" y="472.00" text-anchor="end">0</text>
<line x1="82" y1="387.60" x2="878" y2="387.60" stroke="#e2e8f0" stroke-width="1"/>
<text class="tick" x="70" y="391.60" text-anchor="end">100</text>
<line x1="82" y1="307.20" x2="878" y2="307.20" stroke="#e2e8f0" stroke-width="1"/>
<text class="tick" x="70" y="311.20" text-anchor="end">200</text>
<line x1="82" y1="226.80" x2="878" y2="226.80" stroke="#e2e8f0" stroke-width="1"/>
<text class="tick" x="70" y="230.80" text-anchor="end">300</text>
<line x1="82" y1="146.40" x2="878" y2="146.40" stroke="#e2e8f0" stroke-width="1"/>
<text class="tick" x="70" y="150.40" text-anchor="end">400</text>
<line x1="82" y1="66.00" x2="878" y2="66.00" stroke="#e2e8f0" stroke-width="1"/>
<text class="tick" x="70" y="70.00" text-anchor="end">500</text>
<text class="tick" x="890" y="472.00" text-anchor="start">0</text>
<text class="tick" x="890" y="371.50" text-anchor="start">5</text>
<text class="tick" x="890" y="271.00" text-anchor="start">10</text>
<text class="tick" x="890" y="170.50" text-anchor="start">15</text>
<text class="tick" x="890" y="70.00" text-anchor="start">20</text>
<line x1="82.00" y1="66" x2="82.00" y2="468" stroke="#e2e8f0" stroke-width="1"/>
<text class="tick" x="82.00" y="492" text-anchor="middle">0</text>
<line x1="324.92" y1="66" x2="324.92" y2="468" stroke="#e2e8f0" stroke-width="1"/>
<text class="tick" x="324.92" y="492" text-anchor="middle">20k</text>
<line x1="567.84" y1="66" x2="567.84" y2="468" stroke="#e2e8f0" stroke-width="1"/>
<text class="tick" x="567.84" y="492" text-anchor="middle">40k</text>
<line x1="810.76" y1="66" x2="810.76" y2="468" stroke="#e2e8f0" stroke-width="1"/>
<text class="tick" x="810.76" y="492" text-anchor="middle">60k</text>
<line x1="82" y1="66" x2="82" y2="468" stroke="#334155" stroke-width="1.4"/>
<line x1="878" y1="66" x2="878" y2="468" stroke="#334155" stroke-width="1.4"/>
<line x1="82" y1="468" x2="878" y2="468" stroke="#334155" stroke-width="1.4"/>
<text class="axis-label" x="480.0" y="520" text-anchor="middle">ctx size</text>
<text class="axis-label" x="22" y="267.0" text-anchor="middle" transform="rotate(-90 22 267.0)">prefill t/s</text>
<text class="axis-label" x="938" y="267.0" text-anchor="middle" transform="rotate(90 938 267.0)">generation t/s</text>
<polyline fill="none" stroke="#2563eb" stroke-width="3" stroke-linecap="round" stroke-linejoin="round" points="106.88,135.39 131.75,127.65 156.62,133.23 181.50,137.39 206.38,142.14 231.25,145.48 256.12,149.24 281.00,151.06 305.88,153.80 330.75,157.14 355.62,159.25 380.50,162.56 405.38,165.45 430.25,168.19 455.12,170.34 480.00,172.98 504.88,183.77 529.75,186.31 554.62,188.71 579.50,191.06 604.38,193.55 629.25,195.85 654.12,198.11 679.00,200.44 703.88,204.86 728.75,206.68 753.62,208.71 778.50,210.38 803.38,212.30 828.25,214.40 853.12,216.56 878.00,218.20"/>
<polyline fill="none" stroke="#dc2626" stroke-width="3" stroke-linecap="round" stroke-linejoin="round" points="106.88,189.62 131.75,192.03 156.62,194.04 181.50,196.85 206.38,198.26 231.25,199.26 256.12,200.67 281.00,199.46 305.88,200.87 330.75,202.08 355.62,203.48 380.50,205.29 405.38,206.50 430.25,208.91 455.12,210.92 480.00,217.96 504.88,219.97 529.75,220.97 554.62,222.18 579.50,222.78 604.38,223.78 629.25,224.39 654.12,225.39 679.00,225.79 703.88,227.40 728.75,228.21 753.62,229.41 778.50,230.82 803.38,231.62 828.25,233.63 853.12,234.44 878.00,236.05"/>
<rect x="694" y="66" width="176" height="62" rx="6" fill="#ffffff" stroke="#cbd5e1"/>
<rect x="708" y="78" width="12" height="12" fill="#2563eb"/>
<text class="legend" x="730" y="89">prefill</text>
<rect x="708" y="104" width="12" height="12" fill="#dc2626"/>
<text class="legend" x="730" y="115">generation</text>
</svg>
